<svg version="1.1" xmlns="http://www.w3.org/2000/svg" xmlns:xlink="http://www.w3.org/1999/xlink" width="532" height="421.31975" viewBox="0,0,532,421.31975"><g transform="translate(18.30556,44.85184)"><g data-paper-data="{&quot;isPaintingLayer&quot;:true}" fill-rule="nonzero" stroke-linecap="butt" stroke-linejoin="miter" stroke-miterlimit="10" stroke-dasharray="" stroke-dashoffset="0" style="mix-blend-mode: normal"><path d="M436.88363,32.15496c-20.43267,0.27612 -37.08132,-5.76749 -37.18579,-13.49877c-0.10448,-7.73128 16.37478,-14.22256 36.80745,-14.49868c20.43267,-0.27612 37.08132,5.76749 37.18579,13.49877c0.10448,7.73128 -16.37478,14.22256 -36.80745,14.49868z" fill="#0021ff" stroke="#ff0000" stroke-width="0"/><path d="M36.63925,237.15624c7.9688,-0.3272 16.0631,-2.9564 24.0552,-3c15.4598,-0.0843 30.9247,0.3787 46.3801,0c3.7883,-0.0928 7.5992,-0.1159 11.3981,-0.2613c2.8081,1.8642 6.8335,1.6028 10.2218,2.2613c2.6177,0.5087 5.3333,0 8,0c8.3333,0 16.6667,0 25,0c7.3333,0 14.6667,0 22,0c6.3382,0 12.737,-0.9227 19.0146,-0.0486c3.3669,0.4687 6.6203,1.6352 10,2c8.427,0.9093 17.4672,0.0486 25.9854,0.0486c8.548,0 17.7608,0.979 26.2218,-0.0749c3.4245,-0.4266 6.3519,-2.0695 9.7782,-1.9251c32.6667,0 65.3333,0 98,0c7.3333,0 16.6667,0 24,0c0,0 3.1383,0 5.8987,-1.758c7.3836,0.1109 15.3746,0.1127 22.3339,0.897c5.847,0.6589 14.6603,3.7141 20.5498,3.861c16.734,0.4173 33.4786,-0.0888 50.2176,0c10.1632,0.0539 18,7.5096 18,18c0,2.364 -0.3981,4.5741 -1.1312,6.5802c0.8656,7.1358 -2.1641,14.2079 -8.8688,18.1698c-0.7265,0.4293 -1.5065,0.7318 -2.3157,0.9646c0.2071,1.3048 0.3157,2.7298 0.3157,4.2854c0,12.0636 -6.4103,15.9492 -14.4033,17.2353c9.2602,11.0964 8.1102,31.9675 5.1221,44.5772c-2.3446,9.8937 -7.8685,18.8654 -18.2032,21.4254c-1.9696,0.4879 -7.2028,-0.1257 -8.5093,-0.1257c-3.9225,0 -8.3041,-3.0943 -11.1724,-3.1122c-6.2648,-0.0391 -12.607,0.7461 -18.793,-0.2449c-3.5138,-0.5629 -6.9724,-1.7005 -10.5306,-1.7551c-34.6023,-0.5311 -69.2166,-0.5217 -103.819,0c-6.4205,0.0968 -17.9154,1.99 -26.6913,2c-19.9069,0.0227 -39.8201,-0.4996 -59.7207,0c-3.4497,0.0866 -10.4564,1.9506 -15.2793,2c-6.3767,0.0653 -12.7652,-0.3768 -19.131,0c-10.0743,0.5964 -20.0874,1.9721 -30.1351,2.9163c-51.7491,4.863 -106.2605,7.488 -157.9839,-1.9163c-25.1059,-4.5647 -21.5036,-35.3377 -20.733,-53.7819c0.1216,-2.9103 -0.6442,-14.4999 0.9847,-24.467c0.0436,-3.2126 0.9287,-6.2219 2.445,-8.8175c0.4488,-0.7682 0.9528,-1.5001 1.5067,-2.1904c-1.9793,-0.3374 -3.8484,-0.998 -5.5512,-1.9255c-5.6012,-3.051 -9.4022,-8.9905 -9.4022,-15.8177c0,-0.5051 0.0209,-1.0054 0.0617,-1.5c-0.0408,-0.4946 -0.0617,-0.9949 -0.0617,-1.5c0,-7.8882 5.0742,-14.5914 12.1366,-17.0234c1.5473,-1.6538 3.4031,-2.9291 5.4716,-3.9048c1.661,-0.8769 3.4758,-1.5016 5.3934,-1.8232c10.9282,-2.5221 24.7814,0.0455 31.9433,-0.2486z" fill="#000000" stroke="none" stroke-width="0.5"/><path d="M307.14004,-8.84376h3c10.57655,0 21.46829,-0.68932 31.99772,0.16141c5.84695,-1.94898 12.17774,-2.29237 18.48001,-2.28043c0.81543,-3.28306 1.65153,-6.56301 2.29907,-9.87897c1.5478,-7.927 0.7897,-18.2107 10.1122,-22.2457c3.2976,-1.4273 7.0819,-2.043 10.6532,-1.6462c16.7401,1.8601 17.3736,18.2611 14.5646,30.8791c-1.4879,6.6835 -3.9877,13.2068 -4.5524,20.0305c-1.0369,12.5299 1.6274,25.2796 -0.2093,37.7174c-1.8978,12.8517 -4.9894,24.9498 -6.9752,37.8599c-2.704,17.5791 -3.0419,36.7795 -13.6765,52.124c0.3207,2.3043 0.1477,4.6947 -0.6381,7.052c-2.4391,7.3172 -5.774,7.7068 -9.5676,12.2771c-0.3899,0.4697 -0.7651,0.943 -1.1299,1.4167c-1.4965,3.8861 -4.3022,7.122 -7.8768,9.1674c-0.4062,0.2975 -0.83,0.5764 -1.2751,0.8344c-0.8913,1.4665 -2.0363,2.806 -3.4492,3.954c-5.0427,4.0972 -11.2452,4.895 -17.2976,6.1488c-2.7398,0.5675 -5.6443,0.1972 -8.415,0.4286c-7.5588,0.6313 -14.6531,1.9738 -22.4897,2c-5.7392,0.0193 -11.516,-0.6552 -17.2177,0c-9.0223,1.0368 -17.7007,4.9612 -26.7823,5c-20.9998,0.0898 -42.0002,0.0898 -63,0c-3.4844,-0.0149 -6.1622,-1.6987 -9.4163,-2.3799c-3.0019,-0.6284 -6.3787,-0.243 -9.3357,-1.3203c-7.1069,-2.5892 -13.2367,-5.8333 -20.6532,-8.1121c-10.4838,-3.2214 -15.0063,-3.6771 -24.7671,-6.9468c-25.7014,-8.6094 -22.9079,-39.2865 -21.8277,-61.2409c0,-1.8118 0.2677,-3.561 0.7657,-5.2104c-3.0788,-10.3489 -1.0998,-21.8943 -0.7657,-32.7865c0.5578,-18.1863 0.9464,-36.3837 2,-54.548c0.0082,-0.1419 0.0177,-0.2869 0.0284,-0.4348c-0.0188,-0.3377 -0.0284,-0.6779 -0.0284,-1.0203c0,-0.29224 0.00697,-0.58286 0.02074,-0.87169c-0.04931,-0.51772 -0.07514,-1.06011 -0.07514,-1.62832c0,-4.94974 1.96,-7.93949 4.32775,-9.74536c1.21416,-1.58091 2.74124,-2.78557 4.64845,-3.30104c2.6652,-1.5596 5.7673,-2.4536 9.0782,-2.4536c2.2583,0 4.4195,0.4159 6.4111,1.1753c0.02862,0.00637 0.05721,0.0128 0.08577,0.01928c1.16943,-0.19458 1.94873,-0.19458 1.94873,-0.19458c7.33334,0 14.66666,0 22,0c4.62542,0 10.76555,-0.51705 15.5273,0.09366c1.3632,0.17483 2.63075,0.8815 4,1c4.71938,0.40843 9.91188,-0.21936 14.67424,-0.09203c9.1319,0.24416 18.10523,0.58874 27.08767,0.99838c9.23693,0 18.47386,0 27.71079,0c2.33333,0 4.66667,0 7,0c4.1344,0 8.2688,0 12.4032,0c4.95338,-0.54843 9.85062,-1.59935 14.82009,-1.97585c3.73615,-0.28305 8.98405,-0.37899 12.80772,0.01844c2.6611,0.27659 5.29418,1.01527 7.96899,0.95741c0.01233,0.00007 0.02466,0.00015 0.03699,0.00024c2.64185,-1.00024 4.96301,-1.00024 4.96301,-1.00024zM349.14004,22.15624c-5.19032,0 -10.87099,0.58332 -16.00228,-0.16141c-1.04316,-0.1514 -1.95466,-0.86441 -3,-1c-6.73462,-0.87354 -13.92865,-0.0924 -20.73659,-0.83859c-36.08705,0 -72.17409,0 -108.26114,0c-14.31229,0 -28.62458,0 -42.93687,0c1.7896,2.68128 3.57128,5.36826 5.40062,8.01944c2.90619,4.21181 6.16205,8.21462 8.62064,12.70246c1.72538,3.14945 2.74313,6.64559 3.85038,10.06172c0.68039,2.09918 1.53002,4.24123 1.50069,6.44772c-0.13449,10.11805 -1.32604,20.19441 -1.98906,30.29161l-4.60756,5.81589c0,0 -8.83883,8.83884 -17.67767,0c-7.38869,-7.38868 -2.42446,-14.77737 -0.59666,-17.00294c0.14263,-8.02468 1.56703,-16.71233 -2.64889,-24.05779c-1.83871,-3.2036 -4.20156,-6.07312 -6.34584,-9.08387c-0.00607,0.11961 -0.01121,0.23655 -0.01538,0.35077c-0.1435,3.9323 0.635,15.9943 -0.1101,23.4428c-0.3368,3.3664 -2.6651,16.3196 -0.6573,18.789c4.7463,5.8377 18.6282,16.517 23.2046,17.8172c10.1017,2.8702 44.5598,0.1139 61.6856,1.4411c4.8844,0.3785 9.494,2.3927 14.1354,3.744c14.1302,4.114 28.1738,8.5259 42.1752,13.0584c4.6586,1.5081 9.1941,3.9885 14.0876,4.1625c13.9357,0.4957 35.7725,5.9729 43.4767,-10.9141c8.1724,-17.9131 8.8036,-37.9258 12.2472,-57.045c1.1262,-6.2526 3.5208,-11.7361 3.7551,-18.4174c0.26159,-7.45753 0.13331,-12.87892 -0.03731,-17.42891c-2.87094,-0.02291 -5.77023,-0.19459 -8.51709,-0.19459z" fill="#ff0000" stroke="none" stroke-width="0.5"/><path d="M290.69444,159.15624c-25.4699,0.0807 -75.7655,4.7763 -108.8125,-3.2813c-8.5747,-2.0907 -16.2836,-7.6687 -22.8045,-13.3242c-8.8793,-7.701 -17.1225,-14.6007 -17.383,-27.3945c-0.0708,-3.4776 -0.1138,-8.4692 0.4797,-13.499c-0.986,-1.4568 -1.4076,-3.2829 -2.2702,-4.8329c-6.7052,-12.0469 -7.4413,-23.8325 -8.2095,-37.3889c-0.1318,-2.3262 -0.9902,-5.6737 -1,-8.2792c-0.07,-18.6665 -0.5897,-37.3427 0,-56c0,-3.0945 0.7809,-6.0066 2.1563,-8.55c1.507,-3.29 3.7823,-6.1902 6.7655,-6.9964c2.6652,-1.5597 5.7673,-2.4536 9.0782,-2.4536c4.5344,0 8.6771,1.6766 11.8422,4.4438c2.8405,1.9017 4.7974,4.5984 5.6678,8.9763c1.5955,-1.6788 3.5842,-2.9767 6.078,-3.678c10.6527,-2.9961 17.814,0.5078 21.3632,7.269c11.1987,-4.2298 23.5983,-10.3392 35.2363,-12.7299c26.2879,-5.4001 29.7045,3.9393 52.2248,4.7188c18.5181,0.6409 37.0587,-0.0892 55.5877,0c0.943,0.0045 1.8508,0.0711 2.7235,0.1959c4.4117,-9.37 16.4808,-13.2131 26.6827,-7.3834c13.1485,7.5134 7.735,42.4048 7.5249,47.8761c-1.3963,36.3582 -9.7669,75.0073 -33.1239,103.593c-7.4191,9.08 -16.7188,20.8305 -29.8134,20.8305c-1.7517,0 -3.4745,-0.0357 -5.1758,-0.1006c-3.0114,4.6491 -8.1292,7.9673 -14.818,7.9885z" fill="#000000" stroke="none" stroke-width="0.5"/><text transform="translate(394.69445,93.65624) scale(0.5,0.5)" font-size="40" xml:space="preserve" fill="#cccccc" fill-rule="nonzero" stroke="none" stroke-width="1" stroke-linecap="butt" stroke-linejoin="miter" stroke-miterlimit="10" stroke-dasharray="" stroke-dashoffset="0" font-family="Sans Serif" font-weight="normal" text-anchor="start" style="mix-blend-mode: normal"><tspan x="0" dy="0">press c</tspan><tspan x="0" dy="46.150000000000006px">to crawl</tspan></text><path d="M126.14003,7.65624v-13h257v13z" fill="#ff0000" stroke="none" stroke-width="0"/></g></g></svg>
